<?xml version="1.0" encoding="UTF-8"?><svg id="Livello_4" xmlns="http://www.w3.org/2000/svg" viewBox="0 0 216.74 213.35"><defs><style>.cls-1{fill:#2b00b4;}.cls-1,.cls-2,.cls-3{stroke-width:0px;}.cls-2{fill:aqua;}.cls-3{fill:#0089ff;}</style></defs><path class="cls-1" d="m108.37,49.6c14.63,0,26.53,11.9,26.53,26.53s-11.9,26.53-26.53,26.53-26.53-11.9-26.53-26.53,11.9-26.53,26.53-26.53m0-25.6c-28.79,0-52.13,23.34-52.13,52.13s23.34,52.13,52.13,52.13,52.13-23.34,52.13-52.13-23.34-52.13-52.13-52.13h0Z"/><path class="cls-2" d="m108.37,128.18c-9.68,0-18.73-2.64-26.49-7.24-2.73-1.62-5.3-3.47-7.67-5.54-10.96,9.54-17.89,23.59-17.89,39.27v4.97h25.56v-4.97c0-14.61,11.88-26.49,26.49-26.49Z"/><path class="cls-3" d="m74.21,115.4c-10.96-9.54-17.89-23.59-17.89-39.27v78.53c0-15.68,6.93-29.73,17.89-39.27Z"/><path class="cls-2" d="m108.37,128.18c9.68,0,18.73-2.64,26.49-7.24,2.73-1.62,5.3-3.47,7.67-5.54,10.96,9.54,17.89,23.59,17.89,39.27v4.97s-25.56,0-25.56,0v-4.97c0-14.61-11.88-26.49-26.49-26.49Z"/><path class="cls-3" d="m142.53,115.4c10.96-9.54,17.89-23.59,17.89-39.27v78.53c0-15.68-6.93-29.73-17.89-39.27Z"/><path class="cls-3" d="m142.53,115.4c-9.14-7.96-21.08-12.78-34.15-12.78-9.68,0-18.73,2.64-26.49,7.24-2.73,1.62-5.3,3.47-7.67,5.54,2.37,2.07,4.94,3.92,7.67,5.54,7.76,4.59,16.81,7.24,26.49,7.24,13.07,0,25.01-4.82,34.15-12.78Z"/><path class="cls-1" d="m105.54,168.49c-4.1,0-7.42,3.32-7.42,7.42,0,4.1,3.32,7.42,7.42,7.42v-3.64c-2.08,0-3.77-1.69-3.77-3.77,0-2.08,1.69-3.77,3.77-3.77,1.42,0,2.66.79,3.3,1.95h-3.3s0,3.64,0,3.64h3.3s3.88,0,3.88,0c.15-.58.23-1.19.23-1.82,0-.63-.08-1.24-.23-1.82-.81-3.21-3.72-5.6-7.19-5.6Z"/><rect class="cls-1" x="145.1" y="168.49" width="3.64" height="14.83"/><path class="cls-1" d="m88.83,168.49c-4.1,0-7.42,3.32-7.42,7.42v7.42s3.65,0,3.65,0v-1.03s0-6.15,0-6.15v-.24s0,0,0,0c0-2.08,1.69-3.77,3.77-3.77,2.08,0,3.77,1.69,3.77,3.77h0v.2s0,6.19,0,6.19v1.03s3.65,0,3.65,0v-7.42c0-4.1-3.32-7.42-7.42-7.42Z"/><path class="cls-1" d="m72.18,172.13c2.08,0,3.77,1.69,3.77,3.77,0,2.08-1.69,3.77-3.77,3.77-2.08,0-3.77-1.69-3.77-3.77,0-2.08,1.69-3.77,3.77-3.77m0-3.64c-4.1,0-7.42,3.32-7.42,7.42,0,4.1,3.32,7.42,7.42,7.42s7.42-3.32,7.42-7.42c0-4.1-3.32-7.42-7.42-7.42h0Z"/><path class="cls-1" d="m158.16,172.13c2.08,0,3.77,1.69,3.77,3.77,0,2.08-1.69,3.77-3.77,3.77-2.08,0-3.77-1.69-3.77-3.77,0-2.08,1.69-3.77,3.77-3.77m0-3.64c-4.1,0-7.42,3.32-7.42,7.42,0,4.1,3.32,7.42,7.42,7.42,4.1,0,7.42-3.32,7.42-7.42,0-4.1-3.32-7.42-7.42-7.42h0Z"/><path class="cls-1" d="m58.04,179.68c-1.04,0-1.98-.42-2.67-1.11-.68-.68-1.11-1.63-1.11-2.67,0-1.04.42-1.98,1.11-2.67.68-.68,1.63-1.11,2.67-1.11,1.04,0,1.98.42,2.67,1.11l2.58-2.58c-1.34-1.34-3.19-2.17-5.24-2.17-2.05,0-3.9.83-5.24,2.17s-2.17,3.2-2.17,5.24c0,2.05.83,3.9,2.17,5.24,1.34,1.34,3.2,2.17,5.24,2.17s3.9-.83,5.24-2.17l-2.58-2.58c-.68.68-1.63,1.11-2.67,1.11Z"/><path class="cls-1" d="m122.29,179.68c-1.04,0-1.98-.42-2.67-1.11-.68-.68-1.11-1.63-1.11-2.67s.42-1.98,1.11-2.67c.68-.68,1.63-1.11,2.67-1.11s1.98.42,2.67,1.11l2.58-2.58c-1.34-1.34-3.19-2.17-5.24-2.17-2.05,0-3.9.83-5.24,2.17-1.34,1.34-2.17,3.2-2.17,5.24,0,2.05.83,3.9,2.17,5.24,1.34,1.34,3.2,2.17,5.24,2.17,2.05,0,3.9-.83,5.24-2.17l-2.58-2.58c-.68.68-1.63,1.11-2.67,1.11Z"/><path class="cls-1" d="m131.79,183.32h-2.22v-3.64h2.22c.5,0,.96-.28,1.19-.73l2.95-7.53c.81-1.76,2.58-2.9,4.52-2.9h2.22v3.64h-2.22c-.5,0-.96.28-1.19.73l-2.95,7.53c-.81,1.76-2.58,2.9-4.52,2.9Z"/></svg>